<?xml version="1.0" encoding="UTF-8"?><svg id="_レイヤー_2" xmlns="http://www.w3.org/2000/svg" xmlns:xlink="http://www.w3.org/1999/xlink" viewBox="0 0 150 27.52"><defs><style>.cls-1{fill:url(#_名称未設定グラデーション_12-2);}.cls-2{fill:url(#radial-gradient);}.cls-2,.cls-3{opacity:.76;}.cls-4{fill:url(#_名称未設定グラデーション_12-3);}.cls-5{fill:url(#_名称未設定グラデーション_12-4);}.cls-6{fill:url(#_名称未設定グラデーション_12);}.cls-7{fill:url(#radial-gradient-3);}.cls-8{fill:url(#_名称未設定グラデーション_12-6);}.cls-9{fill:url(#_名称未設定グラデーション_12-5);}.cls-10{fill:#303836;}.cls-3{fill:url(#radial-gradient-2);}</style><linearGradient id="_名称未設定グラデーション_12" x1="24.67" y1="17.71" x2="8.3" y2="1.34" gradientUnits="userSpaceOnUse"><stop offset="0" stop-color="#7915cf"/><stop offset="1" stop-color="#1fe9d1"/></linearGradient><radialGradient id="radial-gradient" cx="11.33" cy="2.39" fx="11.33" fy="2.39" r="9.92" gradientUnits="userSpaceOnUse"><stop offset="0" stop-color="#fff"/><stop offset=".05" stop-color="#fff" stop-opacity=".89"/><stop offset=".15" stop-color="#fff" stop-opacity=".68"/><stop offset=".26" stop-color="#fff" stop-opacity=".5"/><stop offset=".37" stop-color="#fff" stop-opacity=".35"/><stop offset=".48" stop-color="#fff" stop-opacity=".22"/><stop offset=".6" stop-color="#fff" stop-opacity=".12"/><stop offset=".72" stop-color="#fff" stop-opacity=".05"/><stop offset=".85" stop-color="#fff" stop-opacity=".01"/><stop offset="1" stop-color="#fff" stop-opacity="0"/></radialGradient><linearGradient id="_名称未設定グラデーション_12-2" x1="28.13" y1="14.25" x2="11.76" y2="-2.12" xlink:href="#_名称未設定グラデーション_12"/><linearGradient id="_名称未設定グラデーション_12-3" x1="17.04" y1="25.35" x2=".67" y2="8.98" xlink:href="#_名称未設定グラデーション_12"/><linearGradient id="_名称未設定グラデーション_12-4" x1="34.31" y1="9.9" x2="23.53" y2="-.88" xlink:href="#_名称未設定グラデーション_12"/><linearGradient id="_名称未設定グラデーション_12-5" x1="21.69" y1="20.69" x2="5.32" y2="4.32" xlink:href="#_名称未設定グラデーション_12"/><linearGradient id="_名称未設定グラデーション_12-6" x1="23.1" y1="18.98" x2="20.25" y2="3.93" xlink:href="#_名称未設定グラデーション_12"/><radialGradient id="radial-gradient-2" cx="25.99" cy="1.58" fx="25.99" fy="1.58" r="1.52" xlink:href="#radial-gradient"/><radialGradient id="radial-gradient-3" cx="24.59" cy="24.13" fx="24.59" fy="24.13" r="15.66" gradientTransform="translate(8 -6.21) rotate(26.7)" gradientUnits="userSpaceOnUse"><stop offset="0" stop-color="#fff"/><stop offset="0" stop-color="#fff" stop-opacity=".96"/><stop offset=".05" stop-color="#fff" stop-opacity=".78"/><stop offset=".09" stop-color="#fff" stop-opacity=".61"/><stop offset=".14" stop-color="#fff" stop-opacity=".47"/><stop offset=".2" stop-color="#fff" stop-opacity=".34"/><stop offset=".25" stop-color="#fff" stop-opacity=".23"/><stop offset=".32" stop-color="#fff" stop-opacity=".15"/><stop offset=".4" stop-color="#fff" stop-opacity=".08"/><stop offset=".49" stop-color="#fff" stop-opacity=".03"/><stop offset=".63" stop-color="#fff" stop-opacity="0"/><stop offset="1" stop-color="#fff" stop-opacity="0"/></radialGradient></defs><g id="W"><path class="cls-10" d="m46.63,9.97c1.39,0,2.57.49,3.55,1.47.98.98,1.47,2.16,1.47,3.55s-.49,2.57-1.47,3.55c-.98.98-2.16,1.47-3.55,1.47h-9.32v-10.04h9.32Zm0,8.6c.99,0,1.83-.35,2.53-1.05.7-.7,1.05-1.55,1.05-2.53s-.35-1.83-1.05-2.53c-.7-.7-1.54-1.05-2.53-1.05h-7.89v7.17h7.89Z"/><path class="cls-10" d="m54.07,20.01h-1.43v-10.04h1.43v10.04Z"/><path class="cls-10" d="m65.39,15.7h-10.04v-1.43h10.04v1.43Z"/><path class="cls-10" d="m71.66,9.97h9.32v1.43h-9.32c-.99,0-1.83.35-2.53,1.05-.7.7-1.05,1.54-1.05,2.53s.35,1.83,1.05,2.53c.7.7,1.54,1.05,2.53,1.05h9.32v1.43h-9.32c-1.39,0-2.57-.49-3.55-1.47-.98-.98-1.47-2.16-1.47-3.55s.49-2.57,1.47-3.55c.98-.98,2.16-1.47,3.55-1.47Z"/><path class="cls-10" d="m86.01,20.01c-1.39,0-2.57-.49-3.55-1.47s-1.47-2.16-1.47-3.55.49-2.57,1.47-3.55c.98-.98,2.16-1.47,3.55-1.47h4.3c1.39,0,2.57.49,3.55,1.47.98.98,1.47,2.16,1.47,3.55s-.49,2.57-1.47,3.55c-.98.98-2.16,1.47-3.55,1.47h-4.3Zm0-8.6c-.99,0-1.83.35-2.53,1.05-.7.7-1.05,1.54-1.05,2.53s.35,1.83,1.05,2.53c.7.7,1.54,1.05,2.53,1.05h4.3c.99,0,1.83-.35,2.53-1.05.7-.7,1.05-1.55,1.05-2.53s-.35-1.83-1.05-2.53c-.7-.7-1.54-1.05-2.53-1.05h-4.3Z"/><path class="cls-10" d="m105.62,9.97c1.39,0,2.57.49,3.55,1.47.98.98,1.47,2.16,1.47,3.55s-.49,2.57-1.47,3.55c-.98.98-2.16,1.47-3.55,1.47h-9.32v-10.04h9.32Zm0,8.6c.99,0,1.83-.35,2.53-1.05.7-.7,1.05-1.55,1.05-2.53s-.35-1.83-1.05-2.53c-.7-.7-1.54-1.05-2.53-1.05h-7.89v7.17h7.89Z"/><path class="cls-10" d="m113.06,20.01h-1.43v-10.04h1.43v10.04Z"/><path class="cls-10" d="m115.79,11.87v8.14h-1.43v-10.88l12.9,8.98v-8.14h1.43v10.88l-12.9-8.98Z"/><path class="cls-10" d="m134.71,9.97h9.32v1.43h-9.32c-.99,0-1.83.35-2.53,1.05-.7.7-1.05,1.54-1.05,2.53s.35,1.83,1.05,2.53c.7.7,1.55,1.05,2.53,1.05h7.89v-2.87h-7.89v-1.43h9.32v5.73h-9.32c-1.39,0-2.57-.49-3.55-1.47s-1.47-2.16-1.47-3.55.49-2.57,1.47-3.55c.98-.98,2.16-1.47,3.55-1.47Z"/><path class="cls-10" d="m145.79,17.9c0-.19.03-.38.08-.55.05-.18.12-.35.21-.5.09-.16.2-.3.33-.43.13-.13.27-.24.43-.33.15-.09.32-.16.5-.21.18-.05.36-.08.56-.08s.38.03.55.08c.18.05.35.12.5.21.16.09.3.2.43.33.13.13.24.27.33.43.09.16.16.32.21.5.05.18.08.36.08.55s-.03.38-.08.56c-.05.18-.12.34-.21.5-.09.16-.2.3-.33.43-.13.13-.27.24-.43.33-.16.09-.32.16-.5.21-.18.05-.36.08-.55.08s-.38-.02-.56-.08c-.18-.05-.35-.12-.5-.21-.16-.09-.3-.2-.43-.33-.13-.13-.24-.27-.33-.43-.09-.16-.16-.32-.21-.5-.05-.18-.08-.36-.08-.55Zm.35,0c0,.24.05.47.14.68.09.21.22.4.38.56.16.16.34.28.56.38.21.09.44.14.68.14s.47-.05.68-.14c.21-.09.4-.22.56-.38.16-.16.29-.34.38-.56.09-.21.14-.44.14-.68,0-.16-.02-.32-.06-.46-.04-.15-.1-.29-.18-.42-.08-.13-.17-.25-.28-.36-.11-.11-.23-.2-.36-.28-.13-.08-.27-.14-.42-.18-.15-.04-.3-.06-.46-.06-.24,0-.47.05-.68.14-.21.09-.4.22-.56.38s-.28.34-.38.56c-.09.21-.14.44-.14.68Zm2.84,1.28h-.36l-.43-.72c-.04-.07-.08-.13-.12-.17-.04-.05-.07-.08-.11-.12-.04-.03-.08-.05-.12-.07-.04-.01-.1-.02-.15-.02h-.25v1.09h-.3v-2.56h.77c.11,0,.21.01.31.04.09.03.18.07.25.13.07.06.12.13.16.21.04.09.06.18.06.3,0,.09-.01.17-.04.25-.03.07-.07.14-.11.2-.05.06-.11.11-.18.15-.07.04-.15.07-.24.1h0s.08.05.11.07c.03.02.06.05.09.09.03.03.06.07.09.11.03.04.06.09.1.15l.48.77Zm-1.54-2.29v.93h.41c.08,0,.15-.01.21-.03.06-.02.12-.06.16-.1.05-.04.08-.09.11-.16.03-.06.04-.13.04-.21,0-.14-.04-.24-.13-.32-.09-.08-.22-.12-.39-.12h-.41Z"/><path class="cls-6" d="m10.21,5.67C14.38,2.96,18.79,1.47,22.55,1.25,20.54.4,18.29.02,15.96.24,9.79.82,4.96,5.43,3.83,11.22c1.69-1.99,3.85-3.9,6.38-5.55Z"/><path class="cls-2" d="m10.27,5.67c3.81-2.47,7.81-3.93,11.34-4.33-1.62-.48-3.35-.66-5.13-.49-5.6.53-10.08,4.37-11.71,9.4,1.54-1.64,3.39-3.2,5.5-4.57Z"/><path class="cls-1" d="m32.23,4.9c-.94-1.44-2.43-2.4-4.29-2.9,1.32.55,2.39,1.38,3.12,2.51,1.47,2.27,1.3,5.32-.18,8.48-1.51,3.24-4.4,6.61-8.28,9.36.35.16.71.32,1.07.46.97.38,1.97.7,3.01.93,2.22-2.12,3.72-4.97,4.13-8.13,2.55-3.92,3.24-7.92,1.42-10.72Z"/><path class="cls-4" d="m20.05,23.99c-1.77,1.02-3.57,1.82-5.32,2.41,1.39-.6,2.8-1.34,4.17-2.24.25-.16.5-.33.74-.5-.6-.5-1.18-1.02-1.73-1.58-.95,1.58-2.07,3.04-3.34,4.37,0,0-.02.02-.03.03-.21.22-.42.43-.63.63-.11.11-.23.22-.35.33.28-.06.57-.13.86-.21,1.32.28,2.7.36,4.11.23,1.72-.16,3.34-.64,4.81-1.37-.87-.44-1.7-.95-2.49-1.5-.27-.19-.54-.39-.8-.59Z"/><path class="cls-5" d="m26.14,3.14c.87-.08,1.5-.85,1.42-1.72-.08-.87-.85-1.5-1.72-1.42-.87.08-1.5.85-1.42,1.72.08.87.85,1.5,1.72,1.42Z"/><path class="cls-9" d="m16.05,19.88c-1.58-2.16-2.75-4.64-3.39-7.35,1.08,2.27,2.56,4.29,4.34,6,2.56-3.92,4.03-8.59,3.99-13.55.13.71.23,1.43.3,2.16.44,4.65-.45,9.12-2.35,13.03.91.68,1.87,1.28,2.88,1.8,5.56-4.75,8.08-10.81,5.66-14.54-2.81-4.33-11.22-3.86-18.77,1.05-.95.62-1.84,1.28-2.67,1.96-.88.73-1.69,1.5-2.42,2.29,0,.11-.02.22-.02.33,0-.11.01-.22.02-.33-1.65,1.78-2.88,3.66-3.62,5.48.92-1.63,2.12-3.25,3.58-4.82,0,.02,0,.03,0,.05h0c-.02.56,0,1.12.06,1.69.42,4.45,2.93,8.2,6.47,10.37,2.29-1.54,4.3-3.44,5.95-5.63Zm-5.42-8.97c-.07-.74.48-1.41,1.22-1.48.74-.07,1.41.48,1.48,1.22.07.74-.48,1.41-1.22,1.48-.74.07-1.41-.48-1.48-1.22Z"/><path class="cls-8" d="m27.49,7.43c-2.21-3.4-7.87-3.84-13.86-1.49,2.69-.82,5.24-1.06,7.36-.7,0-.09,0-.17,0-.26.02.09.03.18.04.27,2.06.36,3.72,1.28,4.7,2.79,2.26,3.48.22,8.99-4.58,13.57.22.12.44.25.67.36,5.56-4.75,8.08-10.81,5.66-14.54Z"/><path class="cls-3" d="m27.51,1.58c0,.84-.68,1.52-1.52,1.52s-1.52-.68-1.52-1.52S25.15.05,25.99.05s1.52.68,1.52,1.52Z"/><circle class="cls-7" cx="17.08" cy="13.76" r="12.99" transform="translate(-4.36 9.14) rotate(-26.7)"/></g></svg>